<?xml version="1.0" encoding="UTF-8" standalone="no"?>
<!DOCTYPE svg PUBLIC "-//W3C//DTD SVG 1.1//EN"
 "http://www.w3.org/Graphics/SVG/1.1/DTD/svg11.dtd">
<!-- Generated by graphviz version 2.40.1 (0)
 -->
<!-- Title: chat_DB Pages: 1 -->
<svg width="786pt" height="574pt"
 viewBox="0.00 0.00 786.00 574.00" xmlns="http://www.w3.org/2000/svg" xmlns:xlink="http://www.w3.org/1999/xlink">
<g id="graph0" class="graph" transform="scale(1 1) rotate(0) translate(4 570)">
<title>chat_DB</title>
<polygon fill="#ffffff" stroke="transparent" points="-4,4 -4,-570 782,-570 782,4 -4,4"/>
<!-- members -->
<g id="node1" class="node">
<title>members</title>
<polygon fill="#efefef" stroke="transparent" points="164,-474 164,-508 337,-508 337,-474 164,-474"/>
<polygon fill="none" stroke="#000000" points="164,-474 164,-508 337,-508 337,-474 164,-474"/>
<text text-anchor="start" x="174.5" y="-487.6" font-family="Arial Bold" font-size="18.00" fill="#000000">members</text>
<text text-anchor="start" x="227.5" y="-487.6" font-family="Arial" font-size="14.00" fill="#000000"> </text>
<text text-anchor="start" x="235.5" y="-487.6" font-family="Arial" font-size="14.00" fill="#666666">[BASE TABLE]</text>
<polygon fill="none" stroke="#000000" points="164,-445 164,-474 337,-474 337,-445 164,-445"/>
<text text-anchor="start" x="171" y="-456.8" font-family="Arial" font-size="14.00" fill="#000000">id </text>
<text text-anchor="start" x="194" y="-456.8" font-family="Arial" font-size="14.00" fill="#666666">[int(11)]</text>
<polygon fill="none" stroke="#000000" points="164,-416 164,-445 337,-445 337,-416 164,-416"/>
<text text-anchor="start" x="171" y="-427.8" font-family="Arial" font-size="14.00" fill="#000000">room_id </text>
<text text-anchor="start" x="232" y="-427.8" font-family="Arial" font-size="14.00" fill="#666666">[int(11)]</text>
<polygon fill="none" stroke="#000000" points="164,-387 164,-416 337,-416 337,-387 164,-387"/>
<text text-anchor="start" x="171" y="-398.8" font-family="Arial" font-size="14.00" fill="#000000">user_id </text>
<text text-anchor="start" x="232" y="-398.8" font-family="Arial" font-size="14.00" fill="#666666">[int(11)]</text>
<polygon fill="none" stroke="#000000" points="164,-358 164,-387 337,-387 337,-358 164,-358"/>
<text text-anchor="start" x="171" y="-369.8" font-family="Arial" font-size="14.00" fill="#000000">created_at </text>
<text text-anchor="start" x="254" y="-369.8" font-family="Arial" font-size="14.00" fill="#666666">[datetime]</text>
<polygon fill="none" stroke="#000000" points="164,-329 164,-358 337,-358 337,-329 164,-329"/>
<text text-anchor="start" x="171" y="-340.8" font-family="Arial" font-size="14.00" fill="#000000">updated_at </text>
<text text-anchor="start" x="254" y="-340.8" font-family="Arial" font-size="14.00" fill="#666666">[datetime]</text>
</g>
<!-- rooms -->
<g id="node3" class="node">
<title>rooms</title>
<polygon fill="#efefef" stroke="transparent" points="302,-159 302,-193 475,-193 475,-159 302,-159"/>
<polygon fill="none" stroke="#000000" points="302,-159 302,-193 475,-193 475,-159 302,-159"/>
<text text-anchor="start" x="320" y="-172.6" font-family="Arial Bold" font-size="18.00" fill="#000000">rooms</text>
<text text-anchor="start" x="358" y="-172.6" font-family="Arial" font-size="14.00" fill="#000000"> </text>
<text text-anchor="start" x="366" y="-172.6" font-family="Arial" font-size="14.00" fill="#666666">[BASE TABLE]</text>
<polygon fill="none" stroke="#000000" points="302,-130 302,-159 475,-159 475,-130 302,-130"/>
<text text-anchor="start" x="309" y="-141.8" font-family="Arial" font-size="14.00" fill="#000000">id </text>
<text text-anchor="start" x="332" y="-141.8" font-family="Arial" font-size="14.00" fill="#666666">[int(11)]</text>
<polygon fill="none" stroke="#000000" points="302,-101 302,-130 475,-130 475,-101 302,-101"/>
<text text-anchor="start" x="309" y="-112.8" font-family="Arial" font-size="14.00" fill="#000000">post_id </text>
<text text-anchor="start" x="370" y="-112.8" font-family="Arial" font-size="14.00" fill="#666666">[int(11)]</text>
<polygon fill="none" stroke="#000000" points="302,-72 302,-101 475,-101 475,-72 302,-72"/>
<text text-anchor="start" x="309" y="-83.8" font-family="Arial" font-size="14.00" fill="#000000">created_at </text>
<text text-anchor="start" x="392" y="-83.8" font-family="Arial" font-size="14.00" fill="#666666">[datetime]</text>
<polygon fill="none" stroke="#000000" points="302,-43 302,-72 475,-72 475,-43 302,-43"/>
<text text-anchor="start" x="309" y="-54.8" font-family="Arial" font-size="14.00" fill="#000000">updated_at </text>
<text text-anchor="start" x="392" y="-54.8" font-family="Arial" font-size="14.00" fill="#666666">[datetime]</text>
</g>
<!-- members&#45;&gt;rooms -->
<g id="edge1" class="edge">
<title>members:room_id&#45;&gt;rooms:id</title>
<path fill="none" stroke="#000000" d="M347.1907,-430.1642C396.0309,-421.3248 355.0418,-344.2045 337,-286.5 328.8509,-260.4362 310.1491,-262.0638 302,-236 289.9308,-197.3983 261.5556,-145 302,-145"/>
<polygon fill="#000000" stroke="#000000" points="346.9665,-430.1825 336.6321,-426.5151 341.9833,-430.5912 337,-431 337,-431 337,-431 341.9833,-430.5912 337.3679,-435.4849 346.9665,-430.1825 346.9665,-430.1825"/>
<text text-anchor="start" x="7.5" y="-440.5" font-family="Arial" font-size="10.00" fill="#000000">FOREIGN KEY (room_id) REFERENCES rooms (id)</text>
</g>
<!-- messages -->
<g id="node2" class="node">
<title>messages</title>
<polygon fill="#efefef" stroke="transparent" points="441,-489 441,-523 615,-523 615,-489 441,-489"/>
<polygon fill="none" stroke="#000000" points="441,-489 441,-523 615,-523 615,-489 441,-489"/>
<text text-anchor="start" x="448" y="-502.6" font-family="Arial Bold" font-size="18.00" fill="#000000">messages</text>
<text text-anchor="start" x="509" y="-502.6" font-family="Arial" font-size="14.00" fill="#000000"> </text>
<text text-anchor="start" x="517" y="-502.6" font-family="Arial" font-size="14.00" fill="#666666">[BASE TABLE]</text>
<polygon fill="none" stroke="#000000" points="441,-460 441,-489 615,-489 615,-460 441,-460"/>
<text text-anchor="start" x="448" y="-471.8" font-family="Arial" font-size="14.00" fill="#000000">id </text>
<text text-anchor="start" x="471" y="-471.8" font-family="Arial" font-size="14.00" fill="#666666">[int(11)]</text>
<polygon fill="none" stroke="#000000" points="441,-431 441,-460 615,-460 615,-431 441,-431"/>
<text text-anchor="start" x="448" y="-442.8" font-family="Arial" font-size="14.00" fill="#000000">body </text>
<text text-anchor="start" x="486" y="-442.8" font-family="Arial" font-size="14.00" fill="#666666">[varchar(255)]</text>
<polygon fill="none" stroke="#000000" points="441,-402 441,-431 615,-431 615,-402 441,-402"/>
<text text-anchor="start" x="448" y="-413.8" font-family="Arial" font-size="14.00" fill="#000000">room_id </text>
<text text-anchor="start" x="509" y="-413.8" font-family="Arial" font-size="14.00" fill="#666666">[int(11)]</text>
<polygon fill="none" stroke="#000000" points="441,-373 441,-402 615,-402 615,-373 441,-373"/>
<text text-anchor="start" x="448" y="-384.8" font-family="Arial" font-size="14.00" fill="#000000">user_id </text>
<text text-anchor="start" x="509" y="-384.8" font-family="Arial" font-size="14.00" fill="#666666">[int(11)]</text>
<polygon fill="none" stroke="#000000" points="441,-344 441,-373 615,-373 615,-344 441,-344"/>
<text text-anchor="start" x="448" y="-355.8" font-family="Arial" font-size="14.00" fill="#000000">created_at </text>
<text text-anchor="start" x="531" y="-355.8" font-family="Arial" font-size="14.00" fill="#666666">[datetime]</text>
<polygon fill="none" stroke="#000000" points="441,-315 441,-344 615,-344 615,-315 441,-315"/>
<text text-anchor="start" x="448" y="-326.8" font-family="Arial" font-size="14.00" fill="#000000">updated_at </text>
<text text-anchor="start" x="531" y="-326.8" font-family="Arial" font-size="14.00" fill="#666666">[datetime]</text>
</g>
<!-- messages&#45;&gt;rooms -->
<g id="edge2" class="edge">
<title>messages:room_id&#45;&gt;rooms:id</title>
<path fill="none" stroke="#000000" d="M430.8005,-415.1514C381.6718,-406.1804 418.7406,-327.9873 441,-272 449.1308,-251.5492 466.8692,-256.4508 475,-236 489.9422,-198.417 515.4444,-145 475,-145"/>
<polygon fill="#000000" stroke="#000000" points="431.0344,-415.1708 440.6269,-420.4845 436.0172,-415.5854 441,-416 441,-416 441,-416 436.0172,-415.5854 441.3731,-411.5155 431.0344,-415.1708 431.0344,-415.1708"/>
<text text-anchor="start" x="448.5" y="-425.5" font-family="Arial" font-size="10.00" fill="#000000">FOREIGN KEY (room_id) REFERENCES rooms (id)</text>
</g>
</g>
</svg>
